<svg width="120" height="32" viewBox="0 0 120 32" fill="none" xmlns="http://www.w3.org/2000/svg">
<path d="M37.2671 14V1.232C38.1695 1.0784 39.4367 0.963196 41.2223 0.963196C43.0271 0.963196 44.3135 1.3088 45.1775 2C46.0223 2.6528 46.5599 3.728 46.5599 4.9952C46.5599 6.2624 46.1567 7.3568 45.3695 8.0672C44.3711 8.9888 42.8927 9.4304 41.1647 9.4304C40.7807 9.4304 40.4351 9.4112 40.1663 9.3536V14H37.2671ZM40.1663 3.2864V7.1072C40.4159 7.1648 40.7039 7.184 41.1455 7.184C42.7007 7.184 43.6607 6.3968 43.6607 5.0912C43.6607 3.9008 42.8351 3.1904 41.3567 3.1904C40.7807 3.1904 40.3775 3.2288 40.1663 3.2864ZM53.9809 10.6784H50.2753L49.3537 14H46.3393L50.2753 1.0592H54.1153L58.1473 14H54.9793L53.9809 10.6784ZM50.6977 8.4896H53.5585L52.7521 5.744C52.5217 4.976 52.2913 4.016 52.0993 3.248H52.0609C51.8689 4.016 51.6769 4.9952 51.4657 5.744L50.6977 8.4896ZM59.8801 1.0592H68.4625V3.44H62.7793V5.6672C63.2209 5.6096 63.8545 5.5712 64.3537 5.5712C65.6593 5.5712 67.0225 5.8976 68.0017 6.6272C68.9041 7.28 69.4993 8.2976 69.4993 9.7376C69.4993 10.9856 69.0193 11.9648 68.2705 12.656C67.0225 13.7504 64.9873 14.1344 63.0097 14.1344C61.5697 14.1344 60.5329 14.0384 59.8801 13.9424V1.0592ZM62.7793 7.8176V11.8688C63.1057 11.9264 63.4897 11.9456 63.8929 11.9456C64.6033 11.9456 65.3137 11.7152 65.7937 11.2928C66.1777 10.928 66.4273 10.4096 66.4273 9.776C66.4273 9.1232 66.1585 8.6432 65.7361 8.3168C65.2177 7.9136 64.4881 7.7408 63.7969 7.7408C63.4705 7.7408 63.1249 7.7792 62.7793 7.8176ZM77.0195 0.828796C80.9939 0.828796 83.1635 3.8048 83.1635 7.3952C83.1635 11.6576 80.6099 14.2112 76.8083 14.2112C72.9875 14.2112 70.7219 11.312 70.7219 7.6064C70.7219 3.728 73.2179 0.828796 77.0195 0.828796ZM76.9619 3.152C74.9651 3.152 73.8131 5.0336 73.8131 7.5488C73.8131 10.1024 75.0035 11.888 76.9619 11.888C78.9395 11.888 80.0723 10.0064 80.0723 7.4912C80.0723 5.1488 78.9779 3.152 76.9619 3.152ZM84.8519 1.0592H87.7703V4.88C87.7703 6.3776 88.5767 7.088 89.9399 7.088C90.6119 7.088 91.2839 6.8768 91.8407 6.5888V1.0592H94.7591V14.1728H91.8407V8.7584H91.7831C90.8423 9.2 89.9591 9.4112 88.8839 9.4112C86.5415 9.4112 84.8519 8.1632 84.8519 5.3984V1.0592ZM97.2859 1.0592H99.9739V4.8992C99.9739 6.9728 99.9163 9.0272 99.8203 10.7552H99.8779C100.569 9.2384 101.433 7.5296 102.201 6.1472L104.985 1.0592H107.98V14H105.292V10.1792C105.292 8.1824 105.331 6.416 105.504 4.7264H105.446C104.851 6.2624 104.006 7.9712 103.238 9.3344L100.608 14H97.2859V1.0592ZM118.241 6.1472V8.528H113.48V11.6H118.798V14H110.561V1.0592H118.529V3.4592H113.48V6.1472H118.241ZM37.2671 31V18.232C38.1695 18.0784 39.4367 17.9632 41.2223 17.9632C43.0271 17.9632 44.3135 18.3088 45.1775 19C46.0223 19.6528 46.5599 20.728 46.5599 21.9952C46.5599 23.2624 46.1567 24.3568 45.3695 25.0672C44.3711 25.9888 42.8927 26.4304 41.1647 26.4304C40.7807 26.4304 40.4351 26.4112 40.1663 26.3536V31H37.2671ZM40.1663 20.2864V24.1072C40.4159 24.1648 40.7039 24.184 41.1455 24.184C42.7007 24.184 43.6607 23.3968 43.6607 22.0912C43.6607 20.9008 42.8351 20.1904 41.3567 20.1904C40.7807 20.1904 40.3775 20.2288 40.1663 20.2864ZM47.045 18.04H50.3474L52.229 22.7056C52.5938 23.608 52.8434 24.3952 53.1506 25.1824H53.2082C53.3618 24.6256 53.5922 23.7616 53.8994 22.648L55.301 18.04H58.3922L55.9538 24.4336C55.1666 26.4304 54.3794 28.3888 53.4002 29.5792C52.5554 30.6352 51.4802 31.288 49.9634 31.288C49.2914 31.288 48.9074 31.2112 48.5234 31.0768L48.7346 28.7344C48.9842 28.792 49.2722 28.8304 49.6946 28.8304C50.597 28.8304 51.2114 28.216 51.461 27.64C51.557 27.4096 51.4994 27.2368 51.4034 27.0256L47.045 18.04ZM59.5613 18.0592H62.4413V23.4544H62.7101L66.2621 18.0592H69.8141L65.3021 23.8192C66.9725 24.2224 67.7213 25.3744 68.2589 26.9296C68.7197 28.312 69.1421 29.7136 69.7565 31H66.6077C66.1661 30.1168 65.9165 29.1184 65.6093 28.1584C65.1677 26.6992 64.5725 25.5856 62.9981 25.5856H62.4413V31H59.5613V18.0592ZM71.1671 18.0592H73.8551V21.8992C73.8551 23.9728 73.7975 26.0272 73.7015 27.7552H73.7591C74.4503 26.2384 75.3143 24.5296 76.0823 23.1472L78.8663 18.0592H81.8615V31H79.1735V27.1792C79.1735 25.1824 79.2119 23.416 79.3847 21.7264H79.3271C78.7319 23.2624 77.8871 24.9712 77.1191 26.3344L74.4887 31H71.1671V18.0592Z" fill="#283466"/>
<path d="M30 0H2C0.89543 0 0 0.89543 0 2V30C0 31.1046 0.89543 32 2 32H30C31.1046 32 32 31.1046 32 30V2C32 0.89543 31.1046 0 30 0Z" fill="#283466"/>
<path d="M6.26709 23V10.232C7.16949 10.0784 8.43669 9.9632 10.2223 9.9632C12.0271 9.9632 13.3135 10.3088 14.1775 11C15.0223 11.6528 15.5599 12.728 15.5599 13.9952C15.5599 15.2624 15.1567 16.3568 14.3695 17.0672C13.3711 17.9888 11.8927 18.4304 10.1647 18.4304C9.78069 18.4304 9.43509 18.4112 9.16629 18.3536V23H6.26709ZM9.16629 12.2864V16.1072C9.41589 16.1648 9.70389 16.184 10.1455 16.184C11.7007 16.184 12.6607 15.3968 12.6607 14.0912C12.6607 12.9008 11.8351 12.1904 10.3567 12.1904C9.78069 12.1904 9.37749 12.2288 9.16629 12.2864ZM17.4234 23V10.232C18.3258 10.0784 19.593 9.9632 21.3786 9.9632C23.1834 9.9632 24.4698 10.3088 25.3338 11C26.1786 11.6528 26.7162 12.728 26.7162 13.9952C26.7162 15.2624 26.313 16.3568 25.5258 17.0672C24.5274 17.9888 23.049 18.4304 21.321 18.4304C20.937 18.4304 20.5914 18.4112 20.3226 18.3536V23H17.4234ZM20.3226 12.2864V16.1072C20.5722 16.1648 20.8602 16.184 21.3018 16.184C22.857 16.184 23.817 15.3968 23.817 14.0912C23.817 12.9008 22.9914 12.1904 21.513 12.1904C20.937 12.1904 20.5338 12.2288 20.3226 12.2864Z" fill="white"/>
</svg>
