<svg width="19" height="19" viewBox="0 0 19 19" fill="none" xmlns="http://www.w3.org/2000/svg">
<path d="M9.5 8.90625C10.322 8.90625 11.1256 8.66249 11.8091 8.2058C12.4926 7.7491 13.0253 7.09999 13.3399 6.34053C13.6545 5.58107 13.7368 4.74539 13.5764 3.93916C13.416 3.13292 13.0202 2.39235 12.4389 1.81109C11.8577 1.22983 11.1171 0.833983 10.3108 0.673613C9.50461 0.513243 8.66893 0.595551 7.90947 0.910128C7.15002 1.2247 6.5009 1.75742 6.0442 2.44091C5.58751 3.1244 5.34375 3.92797 5.34375 4.75C5.34501 5.85192 5.7833 6.90835 6.56248 7.68753C7.34165 8.4667 8.39808 8.90499 9.5 8.90625ZM9.5 1.78125C10.0872 1.78125 10.6611 1.95537 11.1493 2.28158C11.6376 2.60779 12.0181 3.07144 12.2428 3.61391C12.4675 4.15638 12.5263 4.7533 12.4117 5.32918C12.2972 5.90506 12.0144 6.43404 11.5992 6.84922C11.184 7.26441 10.6551 7.54716 10.0792 7.66171C9.50329 7.77626 8.90638 7.71747 8.36391 7.49277C7.82144 7.26807 7.35779 6.88756 7.03157 6.39935C6.70536 5.91114 6.53125 5.33717 6.53125 4.75C6.53219 3.96293 6.84527 3.20836 7.40182 2.65182C7.95836 2.09528 8.71293 1.78219 9.5 1.78125Z" fill="white"/>
<path d="M12.4509 10.0938H6.54906C5.28504 10.0953 4.07324 10.5981 3.17945 11.4919C2.28565 12.3857 1.78282 13.5975 1.78125 14.8616V17.8125C1.78125 17.97 1.84381 18.121 1.95516 18.2323C2.06651 18.3437 2.21753 18.4062 2.375 18.4062H16.625C16.7825 18.4062 16.9335 18.3437 17.0448 18.2323C17.1562 18.121 17.2188 17.97 17.2188 17.8125V14.8616C17.2172 13.5975 16.7144 12.3857 15.8206 11.4919C14.9268 10.5981 13.715 10.0953 12.4509 10.0938ZM16.0312 17.2188H2.96875V14.8616C2.96985 13.9123 3.34741 13.0023 4.01861 12.3311C4.68981 11.6599 5.59984 11.2823 6.54906 11.2812H12.4509C13.4002 11.2823 14.3102 11.6599 14.9814 12.3311C15.6526 13.0023 16.0302 13.9123 16.0312 14.8616V17.2188Z" fill="white"/>
<path d="M17.8125 7.125H16.625V5.9375C16.625 5.78003 16.5624 5.62901 16.4511 5.51766C16.3397 5.40631 16.1887 5.34375 16.0312 5.34375C15.8738 5.34375 15.7228 5.40631 15.6114 5.51766C15.5001 5.62901 15.4375 5.78003 15.4375 5.9375V7.125H14.25C14.0925 7.125 13.9415 7.18756 13.8302 7.29891C13.7188 7.41026 13.6562 7.56128 13.6562 7.71875C13.6562 7.87622 13.7188 8.02724 13.8302 8.13859C13.9415 8.24994 14.0925 8.3125 14.25 8.3125H15.4375V9.5C15.4375 9.65747 15.5001 9.8085 15.6114 9.91985C15.7228 10.0312 15.8738 10.0938 16.0312 10.0938C16.1887 10.0938 16.3397 10.0312 16.4511 9.91985C16.5624 9.8085 16.625 9.65747 16.625 9.5V8.3125H17.8125C17.97 8.3125 18.121 8.24994 18.2323 8.13859C18.3437 8.02724 18.4062 7.87622 18.4062 7.71875C18.4062 7.56128 18.3437 7.41026 18.2323 7.29891C18.121 7.18756 17.97 7.125 17.8125 7.125Z" fill="white"/>
</svg>
