<svg width="19" height="19" viewBox="0 0 19 19" fill="none" xmlns="http://www.w3.org/2000/svg">
<path d="M18.24 9.5C18.24 4.67296 14.327 0.76 9.5 0.76C4.67296 0.76 0.76 4.67296 0.76 9.5C0.76 14.327 4.67296 18.24 9.5 18.24C14.327 18.24 18.24 14.327 18.24 9.5ZM19 9.5C19 14.7468 14.7468 19 9.5 19C4.25323 19 0 14.7468 0 9.5C0 4.25323 4.25323 0 9.5 0C14.7468 0 19 4.25323 19 9.5Z" fill="white"/>
<path d="M14.173 9.5C14.173 4.64517 11.9717 0.76 9.38592 0.76C6.79997 0.76 4.59887 4.64505 4.59887 9.5C4.59887 14.3549 6.79997 18.24 9.38592 18.24C11.9717 18.24 14.173 14.3548 14.173 9.5ZM14.933 9.5C14.933 14.7188 12.5074 19 9.38592 19C6.26432 19 3.83887 14.7189 3.83887 9.5C3.83887 4.28105 6.26432 0 9.38592 0C12.5074 0 14.933 4.28116 14.933 9.5Z" fill="white"/>
<path d="M0.398311 9.76624H18.6199C18.8298 9.76624 18.9999 9.59611 18.9999 9.38624C18.9999 9.17637 18.8298 9.00624 18.6199 9.00624H0.398311C0.188438 9.00624 0.0183105 9.17637 0.0183105 9.38624C0.0183105 9.59611 0.188438 9.76624 0.398311 9.76624Z" fill="white"/>
<path d="M9.0791 0.389872V18.62C9.0791 18.8299 9.24923 19 9.4591 19C9.66897 19 9.8391 18.8299 9.8391 18.62V0.389872C9.8391 0.18 9.66897 0.00987244 9.4591 0.00987244C9.24923 0.00987244 9.0791 0.18 9.0791 0.389872Z" fill="white"/>
</svg>
