<svg width="20" height="19" viewBox="0 0 20 19" fill="none" xmlns="http://www.w3.org/2000/svg">
<path d="M13.9513 12.1893L13.4452 12.6954C13.4452 12.6954 12.2423 13.8985 8.95899 10.6145C5.67568 7.33067 6.87855 6.12759 6.87855 6.12759L7.19721 5.80885C7.98232 5.02365 8.05632 3.76302 7.37132 2.84272L5.97028 0.960147C5.12253 -0.178917 3.48439 -0.329386 2.51272 0.642455L0.76872 2.38676C0.28692 2.86865 -0.0359464 3.49331 0.00320911 4.18628C0.103376 5.95911 0.900786 9.77351 5.35039 14.2239C10.069 18.9433 14.4964 19.1308 16.307 18.961C16.8796 18.9074 17.3776 18.614 17.779 18.2126L19.3574 16.634C20.4229 15.5683 20.1224 13.7414 18.7592 12.996L16.6364 11.8352C15.7413 11.3458 14.6509 11.4896 13.9513 12.1893Z" fill="white"/>
</svg>
