<svg width="19" height="19" viewBox="0 0 19 19" fill="none" xmlns="http://www.w3.org/2000/svg">
<path d="M16.1601 2.75505C15.289 1.87799 14.2521 1.18277 13.1099 0.709804C11.9675 0.236836 10.7424 -0.00441568 9.50594 6.11826e-05C7.85298 0.00167618 6.22934 0.437297 4.79778 1.26329C3.36622 2.08929 2.17696 3.27668 1.34906 4.70653C0.521164 6.1364 0.0837236 7.75857 0.0805153 9.4105C0.0773189 11.0625 0.508485 12.6863 1.33083 14.1194L0 19L4.99062 17.6938C6.36868 18.4599 7.91714 18.8683 9.49406 18.8813C12.0009 18.8814 14.4063 17.8918 16.1865 16.1282C17.9668 14.3646 18.978 11.9696 19 9.46441C18.9917 8.21434 18.7364 6.9782 18.2492 5.82688C17.7619 4.67554 17.0519 3.63166 16.1601 2.75505ZM9.50594 17.2544C8.10108 17.2553 6.7219 16.8779 5.51345 16.1619L5.22827 15.9838L2.26954 16.7675L3.05378 13.8819L2.86366 13.585C1.85277 11.9542 1.47549 10.0095 1.8033 8.11922C2.13111 6.22902 3.14125 4.52461 4.64235 3.32888C6.14345 2.13315 8.03121 1.52915 9.94809 1.63131C11.865 1.73346 13.6779 2.53468 15.0432 3.88317C16.5356 5.34164 17.3899 7.33108 17.4196 9.41691C17.4009 11.502 16.5588 13.4954 15.0767 14.9632C13.5947 16.431 11.5925 17.2545 9.50594 17.2544ZM13.7955 11.3882C13.5578 11.2694 12.4053 10.6994 12.1914 10.6282C11.9775 10.5569 11.8111 10.5094 11.6567 10.7469C11.4242 11.0653 11.1742 11.3705 10.9081 11.6613C10.7774 11.8275 10.6348 11.8394 10.3971 11.6613C9.04217 11.1262 7.91334 10.1406 7.20075 8.87066C6.95122 8.45504 7.4384 8.47879 7.88993 7.58817C7.92332 7.52393 7.94067 7.45268 7.94067 7.38036C7.94067 7.30804 7.92332 7.23679 7.88993 7.17255C7.88993 7.05378 7.35522 5.89004 7.1651 5.42692C6.97498 4.96379 6.78487 5.03504 6.63039 5.02317H6.16698C6.04691 5.02501 5.92862 5.05245 5.82001 5.10364C5.71141 5.15484 5.61499 5.22862 5.53721 5.32004C5.27059 5.57913 5.06264 5.89232 4.92736 6.2385C4.79208 6.58468 4.73262 6.95582 4.75297 7.32692C4.82747 8.21529 5.16224 9.06197 5.71545 9.76129C6.72807 11.2763 8.11582 12.5036 9.74359 13.3238C10.5973 13.8218 11.5895 14.0301 12.5716 13.9175C12.8986 13.8527 13.2084 13.7198 13.4806 13.5274C13.753 13.3352 13.9817 13.0877 14.152 12.8013C14.3098 12.4517 14.3594 12.063 14.2946 11.685C14.1876 11.5663 14.0331 11.5069 13.7955 11.3882Z" fill="white"/>
</svg>
